o Torso
v -1.027800 -1.027800 0.513900
v 1.027800 -1.027800 0.513900
v -1.027800 -1.027800 -0.513900
v 1.027800 -1.027800 -0.513900
v -1.027800 2.055600 0.513900
v 1.027800 2.055600 0.513900
v -1.027800 2.055600 -0.513900
v 1.027800 2.055600 -0.513900
v -0.979242 -1.027800 0.513900
v -0.979242 -1.027800 -0.513900
v -0.979242 2.055600 0.513900
v -0.979242 2.055600 -0.513900
v -1.027800 2.055600 0.513900
v 1.027800 2.055600 0.513900
v -1.027800 2.055600 -0.513900
v 1.027800 2.055600 -0.513900
vn -0.0000 -1.0000 -0.0000
vn -0.0000 -0.0000 1.0000
vn 1.0000 -0.0000 -0.0000
vn -0.0000 -0.0000 -1.0000
vn -1.0000 -0.0000 -0.0000
vn -0.0000 1.0000 -0.0000
vt 0.437500 0.687500
vt 0.437500 0.750000
vt 0.562500 0.750000
vt 0.562375 0.687500
vt 0.312500 0.500000
vt 0.437500 0.500000
vt 0.312500 0.687500
vt 0.500000 0.500000
vt 0.500000 0.687500
vt 0.625000 0.500000
vt 0.625000 0.687500
vt 0.250000 0.500000
vt 0.250000 0.687500
vt 0.625000 0.000000
vt 0.687500 0.000000
vt 0.687500 0.187500
vt 0.625000 0.187500
vt 0.312500 0.750000
s 1
usemtl 02_-_Default
f 1/1/1 3/2/1 4/3/1 2/4/1
f 1/5/2 2/6/2 6/1/2 5/7/2
f 2/6/3 4/8/3 8/9/3 6/1/3
f 4/8/4 3/10/4 7/11/4 8/9/4
f 3/12/5 1/5/5 5/7/5 7/13/5
f 9/14/3 10/15/3 12/16/3 11/17/3
f 13/7/6 14/1/6 16/2/6 15/18/6
o RightArm
v -2.007042 -1.027800 0.513900
v -0.979242 -1.027800 0.513900
v -2.007042 -1.027800 -0.513900
v -0.979242 -1.027800 -0.513900
v -2.007042 2.055600 0.513900
v -0.979242 2.055600 0.513900
v -2.007042 2.055600 -0.513900
v -0.979242 2.055600 -0.513900
vn -0.0000 -1.0000 -0.0000
vn -0.0000 1.0000 -0.0000
vn -0.0000 -0.0000 1.0000
vn -0.0000 -0.0000 -1.0000
vn -1.0000 -0.0000 -0.0000
vn 1.0000 -0.0000 -0.0000
vt 0.625000 0.187500
vt 0.625000 0.250000
vt 0.687500 0.250000
vt 0.687500 0.187500
vt 0.562500 0.187500
vt 0.562500 0.250000
vt 0.562500 0.000000
vt 0.625000 0.000000
vt 0.687500 0.000000
vt 0.750000 0.000000
vt 0.750000 0.187500
vt 0.500000 0.000000
vt 0.500000 0.187500
s 1
usemtl 02_-_Default
f 17/19/7 19/20/7 20/21/7 18/22/7
f 21/23/8 22/19/8 24/20/8 23/24/8
f 17/25/9 18/26/9 22/19/9 21/23/9
f 20/27/10 19/28/10 23/29/10 24/22/10
f 19/30/11 17/25/11 21/23/11 23/31/11
f 20/27/12 24/22/12 22/19/12 18/26/12
o LeftArm
v 0.979242 -1.027800 0.513900
v 2.007042 -1.027800 0.513900
v 0.979242 -1.027800 -0.513900
v 2.007042 -1.027800 -0.513900
v 0.979242 2.055600 0.513900
v 2.007042 2.055600 0.513900
v 0.979242 2.055600 -0.513900
v 2.007042 2.055600 -0.513900
vn -0.0000 -1.0000 -0.0000
vn -0.0000 1.0000 -0.0000
vn -0.0000 -0.0000 1.0000
vn 1.0000 -0.0000 -0.0000
vn -0.0000 -0.0000 -1.0000
vn -1.0000 -0.0000 -0.0000
vt 0.750000 0.687500
vt 0.750000 0.750000
vt 0.812500 0.750000
vt 0.812500 0.687500
vt 0.687500 0.687500
vt 0.687500 0.750000
vt 0.687500 0.500000
vt 0.750000 0.500000
vt 0.812500 0.500000
vt 0.875000 0.500000
vt 0.875000 0.687500
vt 0.625000 0.500000
vt 0.625000 0.687500
s 1
usemtl 02_-_Default
f 25/32/13 27/33/13 28/34/13 26/35/13
f 29/36/14 30/32/14 32/33/14 31/37/14
f 25/38/15 26/39/15 30/32/15 29/36/15
f 26/39/16 28/40/16 32/35/16 30/32/16
f 28/40/17 27/41/17 31/42/17 32/35/17
f 27/43/18 25/38/18 29/36/18 31/44/18
o RightLeg
v -1.027800 -4.111199 0.513900
v 0.000000 -4.111199 0.513900
v -1.027800 -4.111199 -0.513900
v 0.000000 -4.111199 -0.513900
v -1.027800 -1.027800 0.513900
v 0.000000 -1.027800 0.513900
v -1.027800 -1.027800 -0.513900
v 0.000000 -1.027800 -0.513900
vn -0.0000 -1.0000 -0.0000
vn -0.0000 1.0000 -0.0000
vn -0.0000 -0.0000 1.0000
vn -0.0000 -0.0000 -1.0000
vn -1.0000 -0.0000 -0.0000
vn 1.0000 -0.0000 -0.0000
vt 0.125000 0.687500
vt 0.125000 0.750000
vt 0.187500 0.750000
vt 0.187500 0.687500
vt 0.062500 0.687500
vt 0.062500 0.750000
vt 0.062500 0.500000
vt 0.125000 0.500000
vt 0.187500 0.500000
vt 0.250000 0.500000
vt 0.250000 0.687500
vt 0.000000 0.500000
vt 0.000000 0.687500
s 1
usemtl 02_-_Default
f 33/45/19 35/46/19 36/47/19 34/48/19
f 37/49/20 38/45/20 40/46/20 39/50/20
f 33/51/21 34/52/21 38/45/21 37/49/21
f 36/53/22 35/54/22 39/55/22 40/48/22
f 35/56/23 33/51/23 37/49/23 39/57/23
f 36/53/24 40/48/24 38/45/24 34/52/24
o Head
v -1.027800 2.055600 1.027800
v 1.027800 2.055600 1.027800
v -1.027800 2.055600 -1.027800
v 1.027800 2.055600 -1.027800
v -1.027800 2.055600 1.027800
v 1.027800 2.055600 1.027800
v -1.027800 2.055600 -1.027800
v 1.027800 2.055600 -1.027800
v -1.027800 4.111199 1.027799
v 1.027800 4.111199 1.027799
v -1.027800 4.111199 -1.027800
v 1.027800 4.111199 -1.027800
v -1.027800 4.111199 1.027799
v 1.027800 4.111199 1.027799
v -1.027800 4.111199 -1.027800
v 1.027800 4.111199 -1.027800
vn -0.0000 -1.0000 -0.0000
vn -0.0000 -0.0000 1.0000
vn 1.0000 -0.0000 -0.0000
vn -0.0000 -0.0000 -1.0000
vn -1.0000 -0.0000 -0.0000
vn -0.0000 1.0000 -0.0000
vt 0.250000 1.000000
vt 0.375000 1.000000
vt 0.375000 0.875000
vt 0.250000 0.875000
vt 0.125000 0.750000
vt 0.250000 0.750000
vt 0.125000 0.875000
vt 0.375000 0.750000
vt 0.500000 0.750000
vt 0.500000 0.875000
vt 0.000000 0.750000
vt 0.000000 0.875000
vt 0.125000 1.000000
s 1
usemtl 02_-_Default
f 41/58/25 43/59/25 44/60/25 42/61/25
f 45/62/26 46/63/26 50/61/26 49/64/26
f 46/63/27 48/65/27 52/60/27 50/61/27
f 48/65/28 47/66/28 51/67/28 52/60/28
f 47/68/29 45/62/29 49/64/29 51/69/29
f 53/64/30 54/61/30 56/58/30 55/70/30
o LeftLeg
v 0.000000 -4.111199 0.513900
v 1.027800 -4.111199 0.513900
v 0.000000 -4.111199 -0.513900
v 1.027800 -4.111199 -0.513900
v 0.000000 -1.027800 0.513900
v 1.027800 -1.027800 0.513900
v 0.000000 -1.027800 -0.513900
v 1.027800 -1.027800 -0.513900
v 0.000000 -4.111199 0.513900
v 0.000000 -4.111199 -0.513900
v 0.000000 -1.027800 0.513900
v 0.000000 -1.027800 -0.513900
vn -0.0000 -1.0000 -0.0000
vn -0.0000 1.0000 -0.0000
vn -0.0000 -0.0000 1.0000
vn 1.0000 -0.0000 -0.0000
vn -0.0000 -0.0000 -1.0000
vn -1.0000 -0.0000 -0.0000
vt 0.375000 0.187500
vt 0.375000 0.250000
vt 0.437500 0.250000
vt 0.437500 0.187500
vt 0.312500 0.187500
vt 0.312500 0.250000
vt 0.312500 0.000000
vt 0.375000 0.000000
vt 0.437500 0.000000
vt 0.500000 0.000000
vt 0.500000 0.187500
vt 0.250000 0.000000
vt 0.250000 0.187500
vt 0.125000 0.500000
vt 0.187500 0.500000
vt 0.187500 0.687500
vt 0.125000 0.687500
s 1
usemtl 02_-_Default
f 57/71/31 59/72/31 60/73/31 58/74/31
f 61/75/32 62/71/32 64/72/32 63/76/32
f 57/77/33 58/78/33 62/71/33 61/75/33
f 58/78/34 60/79/34 64/74/34 62/71/34
f 60/79/35 59/80/35 63/81/35 64/74/35
f 59/82/36 57/77/36 61/75/36 63/83/36
f 65/84/34 66/85/34 68/86/34 67/87/34
